<svg viewBox="0 0 135 135" fill="none" xmlns="http://www.w3.org/2000/svg"><g filter="url(#filter0_f)"><path d="M106 68c0 20.987-17.013 38-38 38S30 88.987 30 68s17.013-38 38-38 38 17.013 38 38z" stroke="#4DAAC7" stroke-width="4"/></g><path d="M57 40h18v18H57V40zM39 58h18v18H39V58z" fill="#4DAAC7"/><path d="M39 58h18v18H39V58zM57 58h18L57 76V58z" fill="#4DAAC7"/><path d="M57 58h18L57 76V58z" fill="#4DAAC7"/><path d="M77 96.02L59 96l.02-18 18 .02-.02 18zM95.02 78.041l-18-.02.022-18 18 .02-.021 18z" fill="#0B908B"/><path d="M95.02 78.041l-18-.02.022-18 18 .02-.021 18z" fill="#0B908B"/><path d="M77.02 78.02l-18-.02 18.021-17.98-.02 18z" fill="#0B908B"/><path d="M77.02 78.02l-18-.02 18.021-17.98-.02 18z" fill="#0B908B"/><circle cx="67" cy="66" r="8" fill="#fff"/><mask id="a" fill="#fff"><path d="M72.004 66a5 5 0 10-4.997 5.004l-.002-3.395a1.605 1.605 0 111.604-1.606L72.004 66z"/></mask><path d="M72.004 66a5 5 0 10-4.997 5.004l-.002-3.395a1.605 1.605 0 111.604-1.606L72.004 66z" fill="#0B908B" stroke="#0B908B" stroke-width="2" mask="url(#a)"/><g filter="url(#filter1_f)"><path d="M127.08 38.817a64.985 64.985 0 016.913 28.251 64.987 64.987 0 01-6.1 28.438l-17.103-7.988a46.13 46.13 0 00-.577-40.226l16.867-8.475z" fill="#0067A8"/></g><g filter="url(#filter2_f)"><path d="M81.49 4.211a64.998 64.998 0 0141.447 27.516L107.273 42.26C100.447 32.11 93.495 14.85 81.49 12.5V4.211z" fill="#0067A8"/></g><g filter="url(#filter3_f)"><path d="M123.125 103.992a64.994 64.994 0 01-48.84 28.793V125.5C84 115 84.5 115.238 92.424 107.733l14.983-14.193 15.718 10.452z" fill="#0067A8"/></g><g filter="url(#filter4_f)"><path d="M8.92 38.817a65 65 0 00-.813 56.69l17.103-7.989a46.123 46.123 0 01.577-40.226L8.92 38.817z" fill="#0067A8"/></g><g filter="url(#filter5_f)"><path d="M55 4C37.856 7.308 22.749 17.193 13 31.48L28.873 42C35.791 31.863 42.835 14.625 55 12.278V4z" fill="#0067A8"/></g><g filter="url(#filter6_f)"><path d="M13 104.387a64.946 64.946 0 0021.184 19.877A65.643 65.643 0 0062 133v-7.239c-9.746-10.435-10.248-10.198-18.198-17.657L28.77 94 13 104.387z" fill="#0067A8"/></g><defs><filter id="filter0_f" x="27" y="27" width="82" height="82" filterUnits="userSpaceOnUse" color-interpolation-filters="sRGB"><feFlood flood-opacity="0" result="BackgroundImageFix"/><feBlend in="SourceGraphic" in2="BackgroundImageFix" result="shape"/><feGaussianBlur stdDeviation=".5" result="effect1_foregroundBlur"/></filter><filter id="filter1_f" x="109.213" y="37.817" width="25.787" height="58.69" filterUnits="userSpaceOnUse" color-interpolation-filters="sRGB"><feFlood flood-opacity="0" result="BackgroundImageFix"/><feBlend in="SourceGraphic" in2="BackgroundImageFix" result="shape"/><feGaussianBlur stdDeviation=".5" result="effect1_foregroundBlur"/></filter><filter id="filter2_f" x="80.49" y="3.211" width="43.447" height="40.05" filterUnits="userSpaceOnUse" color-interpolation-filters="sRGB"><feFlood flood-opacity="0" result="BackgroundImageFix"/><feBlend in="SourceGraphic" in2="BackgroundImageFix" result="shape"/><feGaussianBlur stdDeviation=".5" result="effect1_foregroundBlur"/></filter><filter id="filter3_f" x="73.285" y="92.54" width="50.84" height="41.245" filterUnits="userSpaceOnUse" color-interpolation-filters="sRGB"><feFlood flood-opacity="0" result="BackgroundImageFix"/><feBlend in="SourceGraphic" in2="BackgroundImageFix" result="shape"/><feGaussianBlur stdDeviation=".5" result="effect1_foregroundBlur"/></filter><filter id="filter4_f" x="1" y="37.817" width="25.787" height="58.69" filterUnits="userSpaceOnUse" color-interpolation-filters="sRGB"><feFlood flood-opacity="0" result="BackgroundImageFix"/><feBlend in="SourceGraphic" in2="BackgroundImageFix" result="shape"/><feGaussianBlur stdDeviation=".5" result="effect1_foregroundBlur"/></filter><filter id="filter5_f" x="12" y="3" width="44" height="40" filterUnits="userSpaceOnUse" color-interpolation-filters="sRGB"><feFlood flood-opacity="0" result="BackgroundImageFix"/><feBlend in="SourceGraphic" in2="BackgroundImageFix" result="shape"/><feGaussianBlur stdDeviation=".5" result="effect1_foregroundBlur"/></filter><filter id="filter6_f" x="12" y="93" width="51" height="41" filterUnits="userSpaceOnUse" color-interpolation-filters="sRGB"><feFlood flood-opacity="0" result="BackgroundImageFix"/><feBlend in="SourceGraphic" in2="BackgroundImageFix" result="shape"/><feGaussianBlur stdDeviation=".5" result="effect1_foregroundBlur"/></filter></defs></svg>