<svg xmlns="http://www.w3.org/2000/svg" viewBox="0 0 1000 1000"><path d="M656.96 63.59v53.59h124.42V10H656.96v53.59zM656.96 201.79v50.34l-12.82 6.7c-25.84 13.59-54.74 46.32-66.23 75.03C566.43 362.57 567 346.88 567 682.79V990h302.42V679.35c0-304.15 0-311.04-3.83-325.77-10.14-40-37.9-75.99-72.93-94.75l-11.29-5.93V151.65H656.95v50.14zm187.58 486.75v148.34H595.71V540.2h248.82v148.34zM156.43 395.49c-9.38 16.84-17.23 39.24-22.2 62.78-5.74 28.14-4.59 76.18 2.68 103.17 19.71 74.46 68.9 126.71 134.94 143.36l8.04 2.11V947.9h-9.38c-16.27 0-53.21 5.55-64.31 9.76-25.46 9.57-4.02 19.72 51.68 24.5 69.86 6.12 154.66-2.68 159.25-16.46 2.3-6.51-30.63-14.93-65.84-17.23l-19.71-1.15v-240.4l8.23-2.11c33.88-8.61 64.89-27.94 88.81-55.89 56.08-65.27 67.95-165.95 28.71-244.62l-9.95-20.1-142.02-.57-142.02-.38-6.91 12.24zm272.56 21.06c4.02 4.79 13.4 32.92 16.65 50.15 4.59 25.07 2.87 68.33-3.64 91.3-15.31 53.4-49.19 93.6-93.21 111.02-78.67 30.82-163.84-26.8-183.75-124.6-8.23-40.77-2.49-92.45 14.16-124.41l3.25-6.13h122.12c101.84-.01 122.51.37 124.42 2.67z"/><path d="M168.87 512.25c0 7.27 8.61 39.05 15.12 55.7 8.61 22.4 21.63 43.26 36.56 58.95 14.93 15.7 28.14 24.31 48.23 31.58 12.06 4.21 17.23 4.98 36.94 4.98 35.41.19 58-8.42 80.39-30.43 24.31-24.12 43.26-67.57 48.43-111.59l1.53-13.78H286.2l-.19 6.89c-.38 9-6.7 19.91-15.12 25.65-9.76 6.7-25.84 6.7-35.6 0-8.23-5.74-14.93-16.84-15.31-25.84l-.38-6.7H168.87v4.59z"/></svg>