<svg xmlns="http://www.w3.org/2000/svg" viewBox="0 0 100 125"><path d="M24.145 44.512c-7.349-4.353-9.771-13.83-5.427-21.164 4.351-7.345 13.823-9.774 21.173-5.425 7.333 4.347 9.764 13.824 5.413 21.169-4.345 7.337-13.825 9.763-21.159 5.42z"/><path d="M69.12 17.649L48.088 43.137l11.714 7.921-5.286 11.85S28.978 50.619 28.794 50.549c-3.837-2.057-10.193-2.576-15.019.749C.526 60.886-.709 85.712 3.34 102.629h45.28L41.079 75.28l-13.46-6.482a1.312 1.312 0 111.141-2.363l26.229 12.633a7.165 7.165 0 005.542.254 7.174 7.174 0 004.087-3.815l7.265-16.281 10.809 7.308 15.975-19.357L69.12 17.649zm8.012 29.805l1.167-2.614a7.179 7.179 0 00-13.111-5.849L61.5 47.254l-7.376-4.988L69.412 23.74l23.715 23.7-.011.013H77.132z"/></svg>