<svg version="1.0" xmlns="http://www.w3.org/2000/svg" viewBox="0 0 1280 999"><path d="M277.8 13c-6.7 7.2-12.4 13.4-12.5 13.8-.1.4 1.9 2 4.5 3.7 11.5 7.3 35 29.4 48.4 45.5 19.1 23 33.7 45.8 48.3 75.5 18.4 37.6 28.7 70.2 33.1 105.2 1.9 15.2 2.1 48 .5 63.3-4.7 42.8-18.2 86.8-37.3 121.4-2.7 4.8-4.7 9-4.5 9.2.7.7 46.1-15.7 46.9-16.9.4-.7 2.8-6.5 5.4-12.9 10.8-27.6 18.2-57.5 22.9-91.8 2.2-16 3.1-57.1 1.6-74-6.3-70.6-33.1-132-85.5-195.5-9.8-12-47.3-50.2-55.3-56.3L290.2 0l-12.4 13z"/><path d="M268.4 133.2l-14.1 12.1 6.3 8.9c21.6 30.5 41.4 72.8 50 106.4 5.3 21.1 6.7 33.8 6.1 56.4-.7 26.7-4.1 41.4-14.6 63.5-16.1 33.8-41.8 66.7-69.4 88.7-13.3 10.6-26.4 19.3-48.7 32.3-49.7 29-63.5 40.9-78.4 67.3-25.1 44.5-26.8 95.2-5 148 6.9 16.7 21.7 42.7 23.9 41.9.5-.3 8.9-2.8 18.5-5.7 9.6-2.8 17.7-5.4 17.9-5.6.2-.1-1.7-2.7-4.1-5.6-15.5-18.3-28.1-45.8-32.3-70.3-2-11.6-2-34.4-.1-45.5 5.1-29.2 15.8-50.4 35-69.6 11.2-11.1 20.6-18.4 40.4-31.3 56-36.2 65.1-42.9 84.3-62.1 25-25 40.8-50.5 52.9-85.5 9.7-28.2 13.4-50.5 13.4-80 0-29.6-4-52.9-13.7-81-11.4-32.9-32.3-70.8-50.4-91.2l-3.8-4.3-14.1 12.2z"/><path d="M203.2 192.7l-14.1 10.7 6.4 6.8c15.9 16.8 27.9 41 31.9 64.3 4.4 25-.6 52.8-13.9 78.3-7.3 14-15.2 24.6-25.9 35-11.1 10.7-22.2 18.5-48.2 34-32.5 19.3-46.1 29-61.8 44.2-29.7 28.8-54.2 68-66.6 106.8-18.8 58.7-13 125.8 16.7 192.7 5.2 11.7 13.5 26.5 14.8 26.5.7 0 7.2-2.7 14.6-6.1 7.4-3.4 14.4-6.5 15.6-7 2.2-.8 2.2-.9-1.9-7.1-6.5-9.7-16.9-30.9-22.1-44.9-27.3-74.4-15.9-145.2 34-211.7 9.5-12.6 24.9-28.7 35.8-37.4 10.1-8 25.3-17.9 47-30.6 30.6-17.9 43.9-27.8 57-42.9 19.3-22 34.2-51.6 40.3-79.7 3.6-16.7 3.7-41.7.3-57.6-5.9-27.9-17.7-52.2-36.8-75.8-4.1-5-7.8-9.2-8.3-9.2-.4 0-7.1 4.8-14.8 10.7zM953.5 476.1C664 591 257.9 752.2 231.7 762.6c-10.8 4.2-16.7 7.1-16.4 7.8 1.4 3.6 45.2 120.7 52.9 141.6 5.1 13.5 9.5 24.9 9.9 25.4.7.8 16.7-5.4 177.9-69.4 43.2-17.2 104.4-41.5 136-54 157.7-62.6 220.6-87.5 520-206.4 111-44.1 167.4-67 167.2-67.8-.7-3.4-62.5-167.8-63.1-167.8-.3 0-118.5 46.9-262.6 104.1zM157 789.1c-9.6 3.9-17.7 7.3-17.9 7.5-.2.2 2.3 7.7 5.7 16.6 3.3 9 17.2 46 30.8 82.3 13.5 36.3 25 67 25.5 68.2.8 2.1 1.1 2 18.6-4.9 9.8-3.9 18.1-7.4 18.6-7.8.4-.3-.2-2.9-1.3-5.6-1.5-3.9-56.4-150.1-60.2-160.7-.5-1.5-1.3-2.7-1.6-2.7-.4.1-8.6 3.3-18.2 7.1zM79.5 822.3c-9.9 3.8-18.2 7.1-18.3 7.3-.4.2 61.4 165.9 62.6 168 .5.8 6-.9 18.7-5.9 9.9-3.8 18.2-7.2 18.4-7.3.4-.4-61.9-167.5-62.8-168.5-.3-.4-8.7 2.5-18.6 6.4z"/></svg>