<svg viewBox="0 0 512 512" xmlns="http://www.w3.org/2000/svg"><path d="M175.719 391.05l-37.29 24.27H48.34C21.68 415.32 0 437.012 0 463.66 0 490.31 21.68 512 48.34 512h125.37l82.72-57.96a77.263 77.263 0 0033.16 7.448H512V344.29H233.61c-12.739 21.973-33.32 38.84-57.891 46.762zm0 0M481.102 128.828c16.808-13.219 27.636-33.707 27.636-56.7C508.738 32.36 476.378 0 436.61 0S364.48 32.36 364.48 72.129c0 22.992 10.829 43.48 27.641 56.7a75.878 75.878 0 00-20.512 22.702L249.801 314.29h84.21l77.4-108.23 24.398 17.46-64.918 90.77H512V189.641c0-24.942-12.18-47.082-30.898-60.813zm0 0M144 366.031c40.54 0 73.531-32.98 73.531-73.531 0-40.54-32.992-73.531-73.531-73.531-40.55 0-73.531 32.992-73.531 73.531 0 40.55 32.98 73.531 73.531 73.531zm0 0"/></svg>